<svg height="480pt" viewBox="0 0 480 480.00096" width="480pt" xmlns="http://www.w3.org/2000/svg"><g fill="#bddbff"><path d="m236.71875 471.921875c1.042969.078125 2.160156.078125 3.28125.078125-2.511719 0-4.976562-.214844-7.464844-.296875 1.402344.042969 2.777344.203125 4.183594.21875zm0 0"/><path d="m134.054688 446.449219c-4.160157-2.144531-8.191407-4.488281-12.199219-6.871094 4.007812 2.382813 8.039062 4.726563 12.199219 6.871094zm0 0"/><path d="m150.015625 453.898438c-3.679687-1.554688-7.246094-3.304688-10.824219-5.042969 3.578125 1.738281 7.144532 3.496093 10.824219 5.042969zm0 0"/><path d="m219.128906 471.007812c-1.992187-.175781-3.945312-.488281-5.921875-.710937 1.992188.222656 3.929688.535156 5.921875.710937zm0 0"/><path d="m183.632812 465.082031c-2.824218-.703125-5.601562-1.601562-8.351562-2.402343 2.785156.808593 5.519531 1.699218 8.351562 2.402343zm0 0"/><path d="m201.160156 468.722656c-2.398437-.410156-4.71875-.960937-7.078125-1.441406 2.359375.480469 4.695313 1.039062 7.078125 1.441406zm0 0"/><path d="m118.71875 437.792969c-5.007812-3.078125-9.886719-6.339844-14.636719-9.792969 4.746094 3.445312 9.625 6.710938 14.636719 9.792969zm0 0"/><path d="m166.570312 460.128906c-3.242187-1.078125-6.402343-2.351562-9.601562-3.574218 3.214844 1.214843 6.359375 2.496093 9.601562 3.574218zm0 0"/><path d="m175.28125 462.6875c-2.914062-.847656-5.847656-1.597656-8.710938-2.558594 2.863282.953125 5.796876 1.710938 8.710938 2.558594zm0 0"/><path d="m121.855469 439.578125c-1.03125-.617187-2.109375-1.152344-3.136719-1.785156 1.027344.609375 2.082031 1.167969 3.136719 1.785156zm0 0"/><path d="m232.535156 471.703125c-4.496094-.140625-8.984375-.308594-13.40625-.695313 4.421875.394532 8.910156.554688 13.40625.695313zm0 0"/><path d="m194.082031 467.28125c-3.496093-.695312-7.007812-1.351562-10.449219-2.199219 3.441407.855469 6.953126 1.503907 10.449219 2.199219zm0 0"/><path d="m213.207031 470.296875c-4-.464844-8.070312-.910156-12.046875-1.601563 3.976563.691407 8.007813 1.136719 12.046875 1.601563zm0 0"/><path d="m157.007812 456.554688c-2.328124-.890626-4.695312-1.691407-6.992187-2.65625 2.296875.964843 4.664063 1.765624 6.992187 2.65625zm0 0"/><path d="m139.199219 448.855469c-1.703125-.796875-3.453125-1.542969-5.132813-2.398438 1.671875.855469 3.421875 1.542969 5.132813 2.398438zm0 0"/></g><path d="m375.921875 52c-39.5-28.703125-87.097656-44.109375-135.921875-44-1.121094 0-2.238281 0-3.28125.082031-1.414062 0-2.789062.175781-4.199219.214844-4.488281.144531-8.96875.3125-13.382812.695313-2.015625.183593-4 .488281-5.976563.722656-4 .453125-8 .910156-12 1.597656-2.398437.410156-4.726562.960938-7.09375 1.441406-3.496094.695313-7.011718 1.351563-10.449218 2.207032-2.808594.695312-5.542969 1.601562-8.3125 2.398437-2.921876.847656-5.871094 1.601563-8.746094 2.570313-3.253906 1.085937-6.398438 2.398437-9.597656 3.589843-2.304688.890625-4.664063 1.679688-6.9375 2.632813-3.671876 1.550781-7.199219 3.296875-10.800782 5.03125-1.710937.800781-3.476562 1.601562-5.175781 2.402344-4.140625 2.136718-8.167969 4.472656-12.160156 6.847656-1.046875.625-2.132813 1.160156-3.199219 1.800781-4.992188 3.058594-9.859375 6.316406-14.605469 9.765625-17.269531 12.472656-32.722656 27.28125-45.921875 44h29.839844c8.824219.027344 15.972656 7.175781 16 16 .027344-8.824219 7.175781-15.972656 16-16h64c8.824219.027344 15.972656 7.175781 16 16v256c-.027344 8.828125-7.175781 15.972656-16 16h-64c-8.824219-.027344-15.972656-7.171875-16-16-.027344 8.828125-7.175781 15.972656-16 16h-29.839844c13.199219 16.722656 28.652344 31.527344 45.921875 44 4.75 3.445312 9.628907 6.710938 14.636719 9.792969 1.027344.632812 2.105469 1.167969 3.136719 1.785156 4 2.398437 8 4.726563 12.199219 6.871094 1.683593.863281 3.433593 1.601562 5.136718 2.398437 3.578125 1.738282 7.144532 3.488282 10.824219 5.042969 2.296875.964844 4.664063 1.765625 6.992187 2.65625 3.199219 1.222656 6.320313 2.492187 9.601563 3.574219 2.863281.953125 5.800781 1.710937 8.710937 2.558594 2.785157.800781 5.527344 1.6875 8.351563 2.402343 3.441406.847657 6.953125 1.503907 10.449219 2.199219 2.359375.480469 4.695312 1.03125 7.078125 1.441406 4 .664063 8 1.109375 12.050781 1.597656 1.972656.226563 3.925781.535157 5.917969.710938 4.425781.386719 8.914062.554688 13.410156.699219 2.488281.078125 4.949219.292969 7.460937.292969 100.609376-.011719 189.742188-64.867188 220.710938-160.589844 30.964844-95.722656-3.292969-200.496094-84.828125-259.433594zm0 0" fill="#00ccb3"/><path d="m104 368v-32h-96v32c.027344 8.828125 7.175781 15.972656 16 16h64c8.824219-.027344 15.972656-7.171875 16-16zm0 0" fill="#ffc477"/><path d="m104 112v192h-96v-192c.027344-8.824219 7.175781-15.972656 16-16h64c8.824219.027344 15.972656 7.175781 16 16zm0 0" fill="#ffc477"/><path d="m200 368v-176h-96v176c.027344 8.828125 7.175781 15.972656 16 16h64c8.824219-.027344 15.972656-7.171875 16-16zm0 0" fill="#ff7956"/><path d="m200 112c-.027344-8.824219-7.175781-15.972656-16-16h-64c-8.824219.027344-15.972656 7.175781-16 16v48h96zm0 0" fill="#ff7956"/><path d="m72 144c0 8.835938-7.164062 16-16 16s-16-7.164062-16-16 7.164062-16 16-16 16 7.164062 16 16zm0 0" fill="#ff6243"/><path d="m8 304h96v32h-96zm0 0" fill="#e6e7e8"/><path d="m104 160h96v32h-96zm0 0" fill="#e6e7e8"/><path d="m480 240c-.09375-76.992188-37.039062-149.285156-99.375-194.472656-40.851562-29.722656-90.105469-45.671875-140.625-45.527344-1.320312 0-2.648438 0-3.382812.0820312-1.433594 0-2.847657.1757808-4.28125.2148438-4.496094.144531-8.984376.304687-13.441407.6875-1.917969.160156-3.8125.457031-5.726562.671875-4.214844.464844-8.421875.921875-12.582031 1.601562-2.113282.34375-4.195313.800782-6.296876 1.238282-3.921874.753906-7.839843 1.480468-11.703124 2.402344-2.320313.566406-4.59375 1.292968-6.890626 1.933593-3.589843.992188-7.199218 1.9375-10.734374 3.097657-2.625.863281-5.175782 1.902343-7.761719 2.855468-3.144531 1.160156-6.3125 2.230469-9.40625 3.527344-3.097657 1.296875-6.128907 2.800781-9.183594 4.222656-2.496094 1.167969-5.03125 2.234375-7.496094 3.488282-3.871093 1.984374-7.632812 4.195312-11.410156 6.402343-1.597656.910157-3.199219 1.71875-4.742187 2.671875-5.296876 3.246094-10.484376 6.714844-15.570313 10.398438-16.761719 12.15625-31.867187 26.445312-44.933594 42.503906h-30.457031c-13.253906 0-24 10.746094-24 24v256c0 13.253906 10.746094 24 24 24h30.457031c13.066407 16.046875 28.167969 30.324219 44.917969 42.472656 5.085938 3.691406 10.28125 7.15625 15.59375 10.398438 1.398438.859375 2.863281 1.601562 4.28125 2.402344 3.925781 2.304687 7.863281 4.597656 11.902344 6.664062 2.007812 1.03125 4.089844 1.886719 6.128906 2.855469 3.519531 1.671875 7.03125 3.390625 10.625 4.894531 2.328125.960938 4.710938 1.753906 7.0625 2.648438 3.390625 1.289062 6.757812 2.625 10.207031 3.753906 2.527344.800781 5.121094 1.480468 7.671875 2.222656 3.335938.96875 6.648438 1.992188 10.023438 2.816406 2.816406.6875 5.671875 1.183594 8.511718 1.769532 3.152344.648437 6.289063 1.351562 9.464844 1.871093 3.359375.542969 6.753906.894531 10.144532 1.304688 2.640624.3125 5.273437.703125 7.929687.925781 4.390625.378906 8.796875.535156 13.261719.671875 1.3125 0 2.617187.183594 3.9375.199219 1.320312.019531 2.558594.128906 3.878906.128906 6.367188 0 12.699219-.246094 18.992188-.734375 43.902343-3.367187 86.007812-18.878906 121.601562-44.800781 62.34375-45.179688 99.300781-117.46875 99.40625-194.464844zm-16.238281-8h-103.855469c.007812-50.101562-9.285156-99.769531-27.402344-146.480469 15.140625-6.390625 29.578125-14.328125 43.089844-23.6875 53.339844 40.699219 85.683594 103.121094 88.167969 170.167969zm-104.800781 197.730469c-2.066407 1.292969-4.152344 2.527343-6.25 3.75-2.773438 1.632812-5.578126 3.203125-8.414063 4.710937-2.152344 1.136719-4.3125 2.226563-6.496094 3.289063-2.871093 1.410156-5.777343 2.738281-8.710937 4-2.210938.960937-4.433594 1.90625-6.671875 2.792969-2.984375 1.183593-6.007813 2.273437-9.042969 3.328124-2.246094.800782-4.496094 1.597657-6.773438 2.269532-3.121093.96875-6.28125 1.816406-9.449218 2.648437-2.113282.554688-4.207032 1.136719-6.335938 1.601563 14.609375-14.03125 26.496094-30.648438 35.054688-49.007813 12.484375 5.144531 24.46875 11.421875 35.808594 18.75-.925782.640625-1.816407 1.28125-2.734376 1.867188zm-176.800782 26.628906c-3.335937-.886719-6.65625-1.832031-9.9375-2.871094-2.09375-.65625-4.167968-1.367187-6.238281-2.085937-3.097656-1.089844-6.167969-2.234375-9.214844-3.457032-2.152343-.863281-4.296875-1.753906-6.402343-2.6875-2.886719-1.265624-5.742188-2.609374-8.582032-4-2.183594-1.074218-4.359375-2.160156-6.503906-3.304687-2.722656-1.441406-5.402344-2.976563-8.066406-4.535156-2.148438-1.257813-4.300782-2.519531-6.398438-3.855469-.800781-.53125-1.640625-1.113281-2.464844-1.648438 11.421876-7.386718 23.5-13.703124 36.082032-18.875 8.527344 18.402344 20.398437 35.058594 35.007812 49.121094-.457031-.101562-.914062-.175781-1.367187-.289062-1.976563-.460938-3.9375-.988282-5.898438-1.511719zm-166.160156-144.359375h80v16h-80zm104.800781-261.558594c2.121094-1.34375 4.28125-2.609375 6.398438-3.871094 2.671875-1.601562 5.351562-3.105468 8.082031-4.546874 2.109375-1.125 4.246094-2.191407 6.398438-3.246094 2.921874-1.425782 5.863281-2.808594 8.800781-4.105469 2-.867187 4.015625-1.710937 6.046875-2.527344 3.253906-1.3125 6.542968-2.539062 9.863281-3.6875 1.808594-.632812 3.625-1.25 5.449219-1.832031 3.675781-1.164062 7.378906-2.230469 11.113281-3.199219 1.550781-.402343 3.09375-.800781 4.65625-1.191406.582031-.136719 1.175781-.234375 1.75-.363281-14.585937 14.058594-26.441406 30.699218-34.957031 49.082031-12.582032-5.171875-24.660156-11.488281-36.082032-18.871094.832032-.535156 1.632813-1.121093 2.480469-1.640625zm185.757813-24.335937c2.304687.71875 4.585937 1.511719 6.867187 2.304687 3 1.039063 5.984375 2.117188 8.933594 3.285156 2.28125.90625 4.527344 1.859376 6.769531 2.832032 2.894532 1.265625 5.765625 2.597656 8.617188 4 2.207031 1.066406 4.398437 2.179687 6.574218 3.335937 2.808594 1.480469 5.601563 3.050781 8.335938 4.664063 2.113281 1.242187 4.222656 2.480468 6.304688 3.792968.910156.578126 1.792968 1.207032 2.703124 1.800782-11.339843 7.328125-23.324218 13.605468-35.808593 18.75-8.554688-18.371094-20.441407-34.996094-35.054688-49.039063 2.144531.496094 4.273438 1.089844 6.398438 1.648438 3.136719.824219 6.265625 1.664062 9.359375 2.625zm-74.558594 350.207031c-8.886719.261719-17.75 1.011719-26.550781 2.25 1.65625-3.277344 2.53125-6.890625 2.550781-10.5625v-120h24zm-120-208.3125h80v16h-80zm96 64v-120c-.019531-3.667969-.894531-7.285156-2.550781-10.558594 8.800781 1.238282 17.664062 1.988282 26.550781 2.246094v128.3125zm40-215.199219c23.726562 4.113281 45.503906 26.230469 62.304688 59.878907-20.136719 6.621093-41.117188 10.335937-62.304688 11.035156zm-16 0v70.929688c-21.246094-.714844-42.285156-4.460938-62.472656-11.128907 17.242187-34.359374 39.472656-55.746093 62.472656-59.800781zm-79.757812 87.199219h31.757812c4.417969 0 8 3.582031 8 8v40h-80v-40c0-4.417969 3.582031-8 8-8zm-40.242188 96h80v168c0 4.417969-3.582031 8-8 8h-64c-4.417969 0-8-3.582031-8-8zm120 192.289062v70.910157c-23-4.070313-45.230469-25.453125-62.472656-59.796875 20.1875-6.664063 41.226562-10.40625 62.472656-11.113282zm16 70.953126v-70.953126c21.1875.710938 42.167969 4.4375 62.304688 11.070313-16.800782 33.648437-38.578126 55.769531-62.304688 59.882813zm0-86.929688v-128.3125h95.90625c-.21875 48.152344-9.332031 95.851562-26.890625 140.6875-22.269531-7.496094-45.527344-11.664062-69.015625-12.375zm0-144.3125v-128.3125c23.488281-.710938 46.746094-4.882812 69.015625-12.382812 17.558594 44.839843 26.671875 92.542968 26.890625 140.695312zm-143.496094-170.101562c13.574219 9.394531 28.082032 17.359374 43.296875 23.765624-.320312.800782-.632812 1.554688-.945312 2.335938h-26.855469c-1.566406.007812-3.128906.164062-4.664062.472656-.519532.105469-1 .296875-1.503907.433594-.96875.238281-1.921875.53125-2.855469.886719-.566406.230469-1.089843.542969-1.601562.800781-.796875.378906-1.574219.800781-2.328125 1.261719-.535156.351562-1.015625.753906-1.519531 1.136719-.503906.386718-1.03125.703124-1.496094 1.121093-.460938-.417969-1-.746093-1.496094-1.121093s-.984375-.800782-1.511718-1.136719c-.753907-.460938-1.535157-.882813-2.335938-1.261719-.542969-.273438-1.0625-.585938-1.597656-.800781-.933594-.355469-1.886719-.652344-2.855469-.886719-.507813-.136719-.984375-.328125-1.507813-.433594-1.554687-.3125-3.136718-.46875-4.726562-.472656h-12.503906c8.886718-9.53125 18.59375-18.265625 29.007812-26.101562zm-80.503906 42.101562h64c4.417969 0 8 3.582031 8 8v184h-80v-184c0-4.417969 3.582031-8 8-8zm-8 264v-24h80v24c0 4.417969-3.582031 8-8 8h-64c-4.417969 0-8-3.582031-8-8zm72 24c1.566406-.003906 3.128906-.164062 4.664062-.472656.519532-.101563.992188-.292969 1.496094-.429688.972656-.234375 1.929688-.53125 2.863282-.890625.570312-.230469 1.082031-.542969 1.601562-.796875.804688-.382812 1.585938-.808594 2.34375-1.273437.527344-.351563 1.007812-.75 1.511719-1.136719.503906-.382812 1.03125-.703125 1.496093-1.117188.464844.414063 1 .742188 1.496094 1.117188.496094.378906.984375.800781 1.519532 1.136719.753906.464843 1.535156.890625 2.335937 1.273437.542969.261719 1.054687.574219 1.601563.796875.933593.359375 1.890624.65625 2.863281.890625.503906.136719.976562.328125 1.496093.429688 1.550782.3125 3.128907.472656 4.710938.472656h26.855469c.3125.800781.625 1.601562.945312 2.335938-15.214843 6.40625-29.722656 14.371093-43.296875 23.769531-10.414062-7.835938-20.121094-16.570313-29.007812-26.105469zm287.59375 26.167969c-13.507812-9.359375-27.949219-17.296875-43.089844-23.6875 18.117188-46.710938 27.410156-96.378907 27.402344-146.480469h103.855469c-2.484375 67.050781-34.828125 129.472656-88.167969 170.167969zm0 0"/><path d="m56 168c13.253906 0 24-10.746094 24-24s-10.746094-24-24-24-24 10.746094-24 24 10.746094 24 24 24zm0-32c4.417969 0 8 3.582031 8 8s-3.582031 8-8 8-8-3.582031-8-8 3.582031-8 8-8zm0 0"/></svg>